<svg xmlns="http://www.w3.org/2000/svg" xmlns:xlink="http://www.w3.org/1999/xlink" width="500" zoomAndPan="magnify" viewBox="0 0 375 374.999991" height="500" preserveAspectRatio="xMidYMid meet" version="1.0"><defs><g/><clipPath id="25c99aa5ad"><path d="M 102.148438 113.667969 L 273.148438 113.667969 L 273.148438 261.417969 L 102.148438 261.417969 Z M 102.148438 113.667969 " clip-rule="nonzero"/></clipPath></defs><path fill="#ffffff" d="M 221.140625 172.714844 L 220.460938 172.714844 L 187.632812 115.933594 L 154.800781 172.714844 L 154.160156 172.714844 L 187.632812 114.800781 Z M 221.140625 172.714844 " fill-opacity="1" fill-rule="nonzero"/><path fill="#ffffff" d="M 272.085938 260.851562 L 103.214844 260.851562 L 123.941406 225.039062 L 124.582031 225.039062 L 104.195312 260.285156 L 271.101562 260.285156 L 250.71875 225.039062 L 251.359375 225.039062 Z M 272.085938 260.851562 " fill-opacity="1" fill-rule="nonzero"/><g clip-path="url(#25c99aa5ad)"><path fill="#ffffff" d="M 252.039062 225.039062 L 250.71875 225.039062 L 271.101562 260.324219 L 104.195312 260.324219 L 124.582031 225.039062 L 123.296875 225.039062 L 102.230469 261.457031 L 273.070312 261.457031 Z M 187.667969 113.667969 L 153.515625 172.753906 L 154.839844 172.753906 L 187.667969 115.933594 L 220.496094 172.753906 L 221.785156 172.753906 Z M 187.667969 113.667969 " fill-opacity="1" fill-rule="nonzero"/></g><g fill="#ffffff" fill-opacity="1"><g transform="translate(114.754031, 195.652572)"><g><path d="M 27.863281 -6.519531 C 28.855469 -8.203125 29.503906 -7.792969 30.90625 -7.46875 C 32.589844 -6.820312 34.164062 -6.214844 35.589844 -5.699219 C 36.042969 -5.523438 36.34375 -5.15625 36.410156 -4.683594 C 36.777344 -2.027344 37.335938 -0.625 38.199219 -0.34375 C 38.351562 -0.28125 38.503906 -0.300781 38.632812 -0.367188 C 38.761719 -0.433594 38.871094 -0.5625 38.914062 -0.691406 C 39 -0.992188 38.847656 -1.316406 38.546875 -1.425781 C 38.179688 -1.554688 37.898438 -2.417969 37.683594 -3.734375 C 37.617188 -4.015625 37.726562 -4.292969 37.941406 -4.46875 C 38.136719 -4.640625 38.4375 -4.703125 38.695312 -4.617188 C 40.164062 -4.078125 41.71875 -3.753906 43.292969 -3.667969 C 43.421875 -3.667969 43.574219 -3.734375 43.683594 -3.839844 C 43.789062 -3.949219 43.832031 -4.101562 43.832031 -4.25 C 43.832031 -4.402344 43.769531 -4.554688 43.660156 -4.640625 C 43.550781 -4.75 43.402344 -4.8125 43.25 -4.8125 C 41.503906 -4.941406 39.796875 -5.351562 38.15625 -6 C 37.683594 -6.152344 37.335938 -6.582031 37.292969 -7.078125 C 36.949219 -11.589844 36.90625 -17.652344 36.882812 -21.042969 C 36.863281 -25.769531 36.820312 -27.601562 36.601562 -28.121094 C 36.515625 -28.359375 36.300781 -28.511719 36.0625 -28.488281 C 35.804688 -28.464844 35.609375 -28.292969 35.546875 -28.058594 C 34.273438 -23.460938 32.695312 -18.949219 30.820312 -14.566406 C 30.191406 -13.144531 29.589844 -11.847656 28.964844 -10.640625 C 28.683594 -10.078125 27.992188 -9.820312 27.410156 -10.035156 C 20.332031 -12.753906 12.238281 -15.667969 6.042969 -16.144531 C 3.648438 -16.316406 2.09375 -15.882812 1.425781 -14.871094 C 0.863281 -14.007812 0.972656 -12.863281 1.726562 -11.460938 C 4.101562 -7.121094 13.25 -0.214844 19.660156 -0.214844 C 22.683594 -0.214844 25.46875 -2.871094 27.863281 -6.519531 Z M 4.984375 -15.042969 C 5.289062 -15.042969 5.613281 -15.042969 5.957031 -15.019531 C 11.847656 -14.566406 19.597656 -11.828125 26.460938 -9.195312 C 26.804688 -9.066406 27.085938 -8.761719 27.195312 -8.417969 C 27.324219 -8.050781 27.257812 -7.660156 27.0625 -7.339844 C 24.539062 -3.386719 22.035156 -1.359375 19.660156 -1.359375 C 14.136719 -1.359375 5.15625 -7.53125 2.71875 -12 C 2.351562 -12.691406 1.984375 -13.640625 2.375 -14.246094 C 2.699219 -14.761719 3.625 -15.042969 4.984375 -15.042969 Z M 35.308594 -23.332031 C 35.460938 -23.785156 35.738281 -23.695312 35.738281 -23.199219 C 35.738281 -22.511719 35.738281 -21.777344 35.761719 -21.042969 C 35.78125 -15.734375 35.871094 -11.503906 36.0625 -8.289062 C 36.105469 -7.921875 35.933594 -7.597656 35.652344 -7.382812 C 35.371094 -7.164062 35.007812 -7.121094 34.683594 -7.25 C 33.324219 -7.769531 31.855469 -8.332031 30.34375 -8.914062 L 29.503906 -9.238281 C 31.855469 -13.746094 33.796875 -18.472656 35.308594 -23.332031 Z M 35.308594 -23.332031 "/></g></g></g><g fill="#ffffff" fill-opacity="1"><g transform="translate(159.727829, 195.652572)"><g><path d="M 16.378906 -5.394531 C 16.273438 -5.503906 16.121094 -5.566406 15.972656 -5.566406 C 15.820312 -5.566406 15.691406 -5.523438 15.582031 -5.417969 C 12.386719 -2.351562 7.726562 -3.386719 4.597656 -5.136719 C 4.53125 -5.375 4.425781 -5.589844 4.273438 -5.785156 C 3.863281 -6.257812 3.195312 -6.429688 2.632812 -6.171875 C 2.4375 -6.109375 2.289062 -5.933594 2.265625 -5.71875 C 2.222656 -5.523438 2.308594 -5.308594 2.480469 -5.179688 C 2.65625 -5.050781 2.847656 -4.898438 3.066406 -4.769531 C 3.429688 -4.53125 3.625 -4.121094 3.5625 -3.691406 C 3.476562 -3.128906 3.300781 -2.589844 3 -2.09375 C 2.847656 -1.8125 2.632812 -1.574219 2.375 -1.359375 C 2.027344 -1.101562 1.574219 -1.035156 1.164062 -1.207031 C 0.753906 -1.359375 0.476562 -1.726562 0.386719 -2.160156 C 0.300781 -2.785156 0.300781 -3.429688 0.367188 -4.078125 C 0.386719 -4.078125 0.410156 -4.101562 0.433594 -4.121094 C 2.332031 -5.804688 8.566406 -15.386719 7.402344 -17.847656 C 7.121094 -18.410156 6.496094 -18.691406 5.890625 -18.539062 C 3.605469 -18.171875 0.152344 -10.015625 -0.605469 -5.308594 C -1.078125 -2.417969 -0.710938 -0.625 0.496094 0.0429688 L 0.710938 0.109375 C 0.90625 0.152344 1.101562 0.171875 1.296875 0.171875 C 2.417969 0.128906 3.453125 -0.496094 3.972656 -1.511719 C 4.230469 -1.921875 4.425781 -2.394531 4.554688 -2.871094 C 4.597656 -3.085938 4.769531 -3.28125 4.964844 -3.367188 C 5.179688 -3.476562 5.417969 -3.476562 5.613281 -3.386719 C 8.957031 -1.984375 13.230469 -1.597656 16.359375 -4.597656 C 16.46875 -4.703125 16.53125 -4.855469 16.53125 -4.984375 C 16.53125 -5.136719 16.488281 -5.289062 16.378906 -5.394531 Z M 6.066406 -17.417969 C 6.109375 -17.417969 6.171875 -17.417969 6.214844 -17.417969 C 6.34375 -17.417969 6.367188 -17.375 6.386719 -17.375 C 6.582031 -16.964844 6.300781 -15.214844 4.101562 -11.265625 C 3.214844 -9.710938 2.246094 -8.222656 1.1875 -6.753906 C 1.144531 -6.691406 1.058594 -6.667969 0.972656 -6.710938 C 0.90625 -6.753906 0.863281 -6.839844 0.886719 -6.90625 C 2.113281 -11.890625 4.964844 -17.242188 6.066406 -17.417969 Z M 6.066406 -17.417969 "/></g></g></g><g fill="#ffffff" fill-opacity="1"><g transform="translate(175.33054, 195.652572)"><g><path d="M 13.984375 -5.828125 C 13.746094 -6.042969 13.402344 -6.042969 13.1875 -5.804688 C 13.101562 -5.742188 6.109375 1.382812 1.46875 -2.007812 C 0.0429688 -3.042969 1.425781 -5.742188 1.445312 -5.761719 C 1.574219 -6.042969 1.46875 -6.367188 1.1875 -6.519531 C 0.90625 -6.648438 0.582031 -6.5625 0.433594 -6.28125 C 0.34375 -6.152344 -1.402344 -2.71875 0.796875 -1.101562 C 1.8125 -0.34375 3.066406 0.0664062 4.339844 0.0429688 C 9 0.0429688 13.726562 -4.769531 13.984375 -5.027344 C 14.09375 -5.136719 14.15625 -5.265625 14.15625 -5.417969 C 14.136719 -5.566406 14.09375 -5.71875 13.984375 -5.828125 Z M 0.195312 -7.53125 C 0.28125 -7.53125 0.367188 -7.554688 0.453125 -7.597656 C 0.972656 -7.855469 1.425781 -8.203125 1.835938 -8.609375 C 2.050781 -8.847656 2.027344 -9.195312 1.8125 -9.410156 C 1.574219 -9.625 1.230469 -9.625 1.015625 -9.386719 C 0.691406 -9.066406 0.324219 -8.804688 -0.0859375 -8.589844 C -0.300781 -8.480469 -0.433594 -8.203125 -0.367188 -7.964844 C -0.300781 -7.703125 -0.0664062 -7.53125 0.195312 -7.53125 Z M 0.195312 -7.53125 "/></g></g></g><g fill="#ffffff" fill-opacity="1"><g transform="translate(188.580979, 195.652572)"><g><path d="M 23.675781 -5.480469 C 23.4375 -5.675781 23.070312 -5.632812 22.878906 -5.394531 C 22.832031 -5.332031 18.019531 0.539062 13.597656 -2.027344 C 13.015625 -2.4375 12.5625 -3 12.324219 -3.648438 C 11.914062 -4.46875 11.417969 -5.460938 10.035156 -5.246094 C 9.324219 -5.136719 8.222656 -4.230469 7.292969 -3.195312 C 7.25 -3.128906 7.164062 -3.109375 7.101562 -3.128906 C 7.035156 -3.152344 6.972656 -3.195312 6.972656 -3.28125 C 6.796875 -4.25 6.152344 -5.070312 5.246094 -5.460938 C 4.511719 -5.65625 3.324219 -5.871094 0.839844 -3.410156 C 0.710938 -3.300781 0.539062 -3.34375 0.5625 -3.519531 C 0.5625 -3.605469 0.992188 -5.351562 0.992188 -5.351562 C 1.058594 -5.65625 0.863281 -5.957031 0.5625 -6.042969 C 0.257812 -6.109375 -0.0429688 -5.914062 -0.128906 -5.613281 L -1.164062 -1.058594 C -1.230469 -0.796875 -1.101562 -0.539062 -0.863281 -0.410156 C -0.605469 -0.300781 -0.324219 -0.367188 -0.171875 -0.582031 C 2.71875 -4.207031 4.144531 -4.554688 4.726562 -4.46875 C 5.308594 -4.359375 6.085938 -3.195312 6 -1.316406 C 6 -1.058594 6.152344 -0.820312 6.410156 -0.753906 C 6.667969 -0.667969 6.929688 -0.777344 7.058594 -0.992188 C 7.941406 -2.503906 9.667969 -4.035156 10.207031 -4.121094 C 10.726562 -4.207031 10.878906 -4.015625 11.308594 -3.152344 C 11.632812 -2.289062 12.238281 -1.554688 13.015625 -1.058594 C 13.921875 -0.519531 14.957031 -0.214844 16.015625 -0.214844 C 20.136719 -0.214844 23.589844 -4.445312 23.761719 -4.683594 C 23.957031 -4.921875 23.914062 -5.289062 23.675781 -5.480469 Z M 23.675781 -5.480469 "/></g></g></g><g fill="#ffffff" fill-opacity="1"><g transform="translate(211.305268, 195.652572)"><g><path d="M 18.042969 -5.222656 C 17.828125 -5.460938 17.460938 -5.480469 17.222656 -5.265625 C 17.15625 -5.203125 10.746094 0.5625 6.777344 -2.050781 C 5.203125 -3.085938 4.8125 -5.589844 4.8125 -5.613281 C 4.792969 -5.871094 4.597656 -6.066406 4.339844 -6.109375 C 4.101562 -6.128906 3.839844 -6 3.734375 -5.785156 C 2.71875 -3.539062 0.929688 -0.691406 0.433594 -1.015625 C 0.386719 -1.015625 0.300781 -1.101562 0.238281 -1.25 C -0.0234375 -1.964844 0.0664062 -2.742188 0.433594 -3.410156 C 1.25 -5.09375 2.761719 -6.300781 4.574219 -6.753906 C 4.769531 -6.796875 4.921875 -6.949219 4.984375 -7.144531 C 5.050781 -7.339844 4.984375 -7.554688 4.855469 -7.703125 C 4.703125 -7.835938 4.511719 -7.898438 4.316406 -7.855469 C 2.160156 -7.339844 0.367188 -5.871094 -0.605469 -3.886719 C -1.121094 -2.914062 -1.1875 -1.75 -0.777344 -0.734375 C -0.582031 -0.238281 -0.109375 0.109375 0.433594 0.109375 L 0.453125 0.109375 C 1.511719 0.0859375 2.828125 -1.230469 3.734375 -2.65625 C 3.839844 -2.828125 4.035156 -2.914062 4.230469 -2.890625 C 4.425781 -2.890625 4.597656 -2.785156 4.683594 -2.613281 C 5.050781 -2.007812 5.546875 -1.488281 6.152344 -1.121094 C 10.855469 2.007812 17.699219 -4.164062 18 -4.425781 C 18.105469 -4.53125 18.171875 -4.683594 18.171875 -4.8125 C 18.195312 -4.964844 18.128906 -5.113281 18.042969 -5.222656 Z M 18.042969 -5.222656 "/></g></g></g><g fill="#ffffff" fill-opacity="1"><g transform="translate(228.742329, 195.652572)"><g><path d="M 18.105469 -5.546875 C 18 -5.65625 17.871094 -5.742188 17.71875 -5.742188 C 17.566406 -5.761719 17.417969 -5.71875 17.308594 -5.632812 C 17.222656 -5.566406 8.914062 1.035156 1.984375 -1.8125 C 0.582031 -2.394531 0.519531 -3.152344 0.5625 -3.5625 C 0.5625 -3.625 0.582031 -3.691406 0.648438 -3.734375 C 0.691406 -3.777344 0.777344 -3.777344 0.839844 -3.753906 C 2.246094 -3.667969 3.648438 -4.035156 4.855469 -4.792969 C 5.890625 -5.460938 6.066406 -6.195312 6 -6.667969 C 5.957031 -7.445312 5.332031 -8.070312 4.53125 -8.09375 C 2.828125 -8.179688 -0.0234375 -6.152344 -0.496094 -3.992188 C -0.691406 -3.195312 -0.667969 -1.683594 1.554688 -0.777344 C 2.914062 -0.214844 4.339844 0.0429688 5.785156 0.0429688 C 11.976562 0.0429688 17.71875 -4.511719 18.019531 -4.75 C 18.128906 -4.835938 18.214844 -4.984375 18.214844 -5.113281 C 18.238281 -5.265625 18.195312 -5.417969 18.105469 -5.546875 Z M 1.339844 -5.070312 C 2.179688 -6.238281 3.582031 -7.015625 4.46875 -6.949219 C 4.703125 -6.949219 4.835938 -6.863281 4.878906 -6.539062 C 4.898438 -6.324219 4.660156 -6.019531 4.230469 -5.742188 C 3.34375 -5.15625 0.691406 -4.207031 1.339844 -5.070312 Z M 1.339844 -5.070312 "/></g></g></g><g fill="#ffffff" fill-opacity="1"><g transform="translate(246.028325, 195.652572)"><g><path d="M 14.847656 -5.523438 C 14.742188 -5.632812 14.589844 -5.699219 14.4375 -5.699219 C 14.289062 -5.699219 14.136719 -5.632812 14.027344 -5.523438 C 13.984375 -5.480469 8.308594 0.109375 4.230469 -1.121094 C 2.785156 -1.554688 1.984375 -2.933594 1.53125 -4.402344 C 1.402344 -4.878906 1.445312 -5.394531 1.660156 -5.847656 C 3.171875 -8.914062 6.882812 -16.941406 5.050781 -18.90625 C 4.617188 -19.445312 3.90625 -19.617188 3.28125 -19.359375 C 1.101562 -18.410156 -0.34375 -12.042969 -0.0859375 -7.402344 C -0.0429688 -6.691406 0.0429688 -5.976562 0.171875 -5.265625 C 0.171875 -5.179688 0.171875 -5.113281 0.214844 -5.050781 C 0.777344 -2.332031 2.050781 -0.582031 3.90625 -0.0429688 C 4.425781 0.109375 4.941406 0.195312 5.460938 0.195312 C 9.839844 0.195312 14.609375 -4.511719 14.828125 -4.726562 C 14.933594 -4.835938 15 -4.964844 15 -5.113281 C 15 -5.289062 14.957031 -5.417969 14.847656 -5.523438 Z M 1.101562 -7.726562 C 0.433594 -11.332031 2.65625 -17.871094 3.734375 -18.324219 C 3.777344 -18.34375 3.820312 -18.367188 3.863281 -18.367188 C 3.949219 -18.367188 4.058594 -18.324219 4.207031 -18.152344 C 5.070312 -17.242188 2.613281 -9.429688 1.46875 -7.597656 C 1.359375 -7.402344 1.144531 -7.511719 1.101562 -7.726562 Z M 1.101562 -7.726562 "/></g></g></g><g fill="#ffffff" fill-opacity="1"><g transform="translate(137.838559, 214.703861)"><g><path d="M 3.042969 -7.554688 L 0.648438 -7.554688 L 0.648438 0 L 1.316406 0 L 1.316406 -2.785156 L 3.042969 -2.785156 C 4.738281 -2.785156 5.6875 -3.800781 5.6875 -5.171875 C 5.6875 -6.507812 4.738281 -7.554688 3.042969 -7.554688 Z M 3.042969 -3.398438 L 1.316406 -3.398438 L 1.316406 -6.917969 L 3.042969 -6.917969 C 4.242188 -6.917969 5.019531 -6.28125 5.019531 -5.171875 C 5.019531 -4.058594 4.242188 -3.398438 3.042969 -3.398438 Z M 3.042969 -3.398438 "/></g></g></g><g fill="#ffffff" fill-opacity="1"><g transform="translate(149.207021, 214.703861)"><g><path d="M 4.328125 0.109375 C 6.25 0.109375 8.171875 -1.480469 8.171875 -3.777344 C 8.171875 -6.078125 6.25 -7.664062 4.328125 -7.664062 C 2.40625 -7.664062 0.484375 -6.078125 0.484375 -3.777344 C 0.484375 -1.480469 2.40625 0.109375 4.328125 0.109375 Z M 4.328125 -0.539062 C 2.773438 -0.539062 1.175781 -1.847656 1.175781 -3.777344 C 1.175781 -5.710938 2.773438 -7.015625 4.328125 -7.015625 C 5.882812 -7.015625 7.480469 -5.710938 7.480469 -3.777344 C 7.480469 -1.847656 5.882812 -0.539062 4.328125 -0.539062 Z M 4.328125 -0.539062 "/></g></g></g><g fill="#ffffff" fill-opacity="1"><g transform="translate(163.165513, 214.703861)"><g><path d="M 6.066406 0 L 3.949219 -2.894531 C 5.074219 -3.195312 5.6875 -4.070312 5.6875 -5.171875 C 5.6875 -6.507812 4.738281 -7.554688 3.042969 -7.554688 L 0.648438 -7.554688 L 0.648438 0 L 1.316406 0 L 1.316406 -2.785156 L 3.042969 -2.785156 C 3.128906 -2.785156 3.214844 -2.785156 3.304688 -2.796875 L 5.320312 0 Z M 1.316406 -6.917969 L 3.042969 -6.917969 C 4.242188 -6.917969 5.019531 -6.28125 5.019531 -5.171875 C 5.019531 -4.058594 4.242188 -3.398438 3.042969 -3.398438 L 1.316406 -3.398438 Z M 1.316406 -6.917969 "/></g></g></g><g fill="#ffffff" fill-opacity="1"><g transform="translate(174.857726, 214.703861)"><g><path d="M 5.441406 -7.554688 L 0.433594 -7.554688 L 0.433594 -6.917969 L 2.601562 -6.917969 L 2.601562 0 L 3.269531 0 L 3.269531 -6.917969 L 5.441406 -6.917969 Z M 5.441406 -7.554688 "/></g></g></g><g fill="#ffffff" fill-opacity="1"><g transform="translate(186.03194, 214.703861)"><g><path d="M 4.988281 -6.953125 L 4.988281 -7.554688 L 0.648438 -7.554688 L 0.648438 0 L 1.316406 0 L 1.316406 -3.519531 L 4.351562 -3.519531 L 4.351562 -4.089844 L 1.316406 -4.089844 L 1.316406 -6.953125 Z M 4.988281 -6.953125 "/></g></g></g><g fill="#ffffff" fill-opacity="1"><g transform="translate(196.698929, 214.703861)"><g><path d="M 4.328125 0.109375 C 6.25 0.109375 8.171875 -1.480469 8.171875 -3.777344 C 8.171875 -6.078125 6.25 -7.664062 4.328125 -7.664062 C 2.40625 -7.664062 0.484375 -6.078125 0.484375 -3.777344 C 0.484375 -1.480469 2.40625 0.109375 4.328125 0.109375 Z M 4.328125 -0.539062 C 2.773438 -0.539062 1.175781 -1.847656 1.175781 -3.777344 C 1.175781 -5.710938 2.773438 -7.015625 4.328125 -7.015625 C 5.882812 -7.015625 7.480469 -5.710938 7.480469 -3.777344 C 7.480469 -1.847656 5.882812 -0.539062 4.328125 -0.539062 Z M 4.328125 -0.539062 "/></g></g></g><g fill="#ffffff" fill-opacity="1"><g transform="translate(210.65742, 214.703861)"><g><path d="M 1.316406 -0.636719 L 1.316406 -7.554688 L 0.648438 -7.554688 L 0.648438 0 L 4.847656 0 L 4.847656 -0.636719 Z M 1.316406 -0.636719 "/></g></g></g><g fill="#ffffff" fill-opacity="1"><g transform="translate(221.238076, 214.703861)"><g><path d="M 0.648438 0 L 1.316406 0 L 1.316406 -7.554688 L 0.648438 -7.554688 Z M 0.648438 0 "/></g></g></g><g fill="#ffffff" fill-opacity="1"><g transform="translate(228.505663, 214.703861)"><g><path d="M 4.328125 0.109375 C 6.25 0.109375 8.171875 -1.480469 8.171875 -3.777344 C 8.171875 -6.078125 6.25 -7.664062 4.328125 -7.664062 C 2.40625 -7.664062 0.484375 -6.078125 0.484375 -3.777344 C 0.484375 -1.480469 2.40625 0.109375 4.328125 0.109375 Z M 4.328125 -0.539062 C 2.773438 -0.539062 1.175781 -1.847656 1.175781 -3.777344 C 1.175781 -5.710938 2.773438 -7.015625 4.328125 -7.015625 C 5.882812 -7.015625 7.480469 -5.710938 7.480469 -3.777344 C 7.480469 -1.847656 5.882812 -0.539062 4.328125 -0.539062 Z M 4.328125 -0.539062 "/></g></g></g></svg>