<svg xmlns="http://www.w3.org/2000/svg" xmlns:xlink="http://www.w3.org/1999/xlink" width="500" zoomAndPan="magnify" viewBox="0 0 375 374.999991" height="500" preserveAspectRatio="xMidYMid meet" version="1.0"><defs><g/><clipPath id="4deb35f76f"><path d="M 37.5 158.238281 L 187 158.238281 L 187 216.761719 L 37.5 216.761719 Z M 37.5 158.238281 " clip-rule="nonzero"/></clipPath><clipPath id="6852502a3f"><path d="M 94.210938 151.464844 L 301.960938 151.464844 L 301.960938 223.460938 L 94.210938 223.460938 Z M 94.210938 151.464844 " clip-rule="nonzero"/></clipPath></defs><g clip-path="url(#4deb35f76f)"><path fill="#000000" d="M 37.5 158.238281 L 186.871094 158.238281 L 186.871094 217.363281 L 37.5 217.363281 Z M 37.5 158.238281 " fill-opacity="1" fill-rule="nonzero"/></g><g clip-path="url(#6852502a3f)"><path stroke-linecap="butt" transform="matrix(0.750847, 0, 0, 0.749268, 94.211154, 151.466416)" fill="none" stroke-linejoin="miter" d="M -0.000287693 -0.00209899 L 276.687246 -0.00209899 L 276.687246 96.086441 L -0.000287693 96.086441 L -0.000287693 -0.00209899 " stroke="#000000" stroke-width="6" stroke-opacity="1" stroke-miterlimit="4"/></g><g fill="#ffffff" fill-opacity="1"><g transform="translate(43.852557, 196.618259)"><g><path d="M 0.476562 0 L 3.117188 0 L 4.914062 -4.464844 L 14.492188 -4.464844 L 16.347656 0 L 18.960938 0 L 10.871094 -19.660156 L 8.566406 -19.660156 Z M 5.871094 -6.769531 L 9.71875 -16.207031 L 13.566406 -6.769531 Z M 5.871094 -6.769531 "/></g></g></g><g fill="#ffffff" fill-opacity="1"><g transform="translate(65.417384, 196.618259)"><g><path d="M 2.863281 0 L 10.839844 0 C 14.800781 0 17.273438 -2.105469 17.273438 -5.503906 C 17.273438 -7.722656 16.179688 -9.382812 14.15625 -10.195312 C 15.757812 -11.011719 16.710938 -12.527344 16.710938 -14.4375 C 16.710938 -17.609375 14.242188 -19.660156 10.476562 -19.660156 L 2.863281 -19.660156 Z M 5.335938 -2.304688 L 5.335938 -8.902344 L 10.757812 -8.902344 C 13.3125 -8.902344 14.746094 -7.695312 14.746094 -5.617188 C 14.746094 -3.511719 13.3125 -2.304688 10.785156 -2.304688 Z M 5.335938 -11.152344 L 5.335938 -17.359375 L 10.421875 -17.359375 C 12.808594 -17.359375 14.183594 -16.234375 14.183594 -14.242188 C 14.183594 -12.273438 12.835938 -11.152344 10.421875 -11.152344 Z M 5.335938 -11.152344 "/></g></g></g><g fill="#ffffff" fill-opacity="1"><g transform="translate(86.392578, 196.618259)"><g><path d="M 2.863281 0 L 5.335938 0 L 5.335938 -19.660156 L 2.863281 -19.660156 Z M 2.863281 0 "/></g></g></g><g fill="#ffffff" fill-opacity="1"><g transform="translate(96.726174, 196.618259)"><g><path d="M 2.863281 0 L 5.335938 0 L 5.335938 -15.054688 L 11.851562 -5.222656 L 13.875 -5.222656 L 20.390625 -15.027344 L 20.390625 0 L 22.863281 0 L 22.863281 -19.660156 L 20.558594 -19.660156 L 12.890625 -8.003906 L 5.167969 -19.660156 L 2.863281 -19.660156 Z M 2.863281 0 "/></g></g></g><g fill="#ffffff" fill-opacity="1"><g transform="translate(124.580491, 196.618259)"><g><path d="M 0.476562 0 L 3.117188 0 L 4.914062 -4.464844 L 14.492188 -4.464844 L 16.347656 0 L 18.960938 0 L 10.871094 -19.660156 L 8.566406 -19.660156 Z M 5.871094 -6.769531 L 9.71875 -16.207031 L 13.566406 -6.769531 Z M 5.871094 -6.769531 "/></g></g></g><g fill="#ffffff" fill-opacity="1"><g transform="translate(146.145313, 196.618259)"><g><path d="M 2.863281 0 L 15.109375 0 L 15.109375 -2.304688 L 5.335938 -2.304688 L 5.335938 -8.875 L 14.101562 -8.875 L 14.101562 -11.152344 L 5.335938 -11.152344 L 5.335938 -17.359375 L 14.800781 -17.359375 L 14.800781 -19.660156 L 2.863281 -19.660156 Z M 2.863281 0 "/></g></g></g><g fill="#ffffff" fill-opacity="1"><g transform="translate(165.211191, 196.618259)"><g><path d="M 2.863281 0 L 14.886719 0 L 14.886719 -2.359375 L 5.335938 -2.359375 L 5.335938 -19.660156 L 2.863281 -19.660156 Z M 2.863281 0 "/></g></g></g><g fill="#000000" fill-opacity="1"><g transform="translate(192.718202, 196.769512)"><g><path d="M 2.078125 0 L 7.695312 0 L 7.695312 -9.972656 L 11.488281 -4.664062 L 15.167969 -4.664062 L 18.929688 -9.941406 L 18.929688 0 L 24.546875 0 L 24.546875 -19.660156 L 19.941406 -19.660156 L 13.3125 -10.308594 L 6.710938 -19.660156 L 2.078125 -19.660156 Z M 2.078125 0 "/></g></g></g><g fill="#000000" fill-opacity="1"><g transform="translate(219.3428, 196.769512)"><g><path d="M 2.078125 0 L 15.867188 0 L 15.867188 -4.632812 L 7.695312 -4.632812 L 7.695312 -7.667969 L 14.800781 -7.667969 L 14.800781 -12.21875 L 7.695312 -12.21875 L 7.695312 -15.082031 L 15.558594 -15.082031 L 15.558594 -19.660156 L 2.078125 -19.660156 Z M 2.078125 0 "/></g></g></g><g fill="#000000" fill-opacity="1"><g transform="translate(236.474655, 196.769512)"><g><path d="M 2.078125 0 L 7.75 0 L 7.75 -5.589844 L 9.886719 -5.589844 L 12.695312 0 L 19.128906 0 L 15.503906 -6.628906 C 17.582031 -7.78125 18.761719 -9.859375 18.761719 -12.609375 C 18.761719 -16.964844 15.8125 -19.660156 11.039062 -19.660156 L 2.078125 -19.660156 Z M 7.640625 -10.109375 L 7.640625 -15.027344 L 10.28125 -15.027344 C 12.078125 -15.027344 13.058594 -14.15625 13.058594 -12.582031 C 13.058594 -11.011719 12.078125 -10.109375 10.28125 -10.109375 Z M 7.640625 -10.109375 "/></g></g></g><g fill="#000000" fill-opacity="1"><g transform="translate(256.695866, 196.769512)"><g><path d="M 11.261719 0.421875 C 16.683594 0.421875 20.785156 -2.863281 21.625 -7.863281 L 15.867188 -7.863281 C 15.167969 -6.011719 13.507812 -4.832031 11.375 -4.832031 C 8.621094 -4.832031 6.710938 -6.882812 6.710938 -9.832031 C 6.710938 -12.808594 8.652344 -14.828125 11.429688 -14.828125 C 13.480469 -14.828125 15.195312 -13.679688 15.785156 -11.910156 L 21.515625 -11.910156 C 20.503906 -16.878906 16.457031 -20.082031 11.207031 -20.082031 C 5.140625 -20.082031 0.953125 -15.898438 0.953125 -9.832031 C 0.953125 -3.761719 5.140625 0.421875 11.261719 0.421875 Z M 11.261719 0.421875 "/></g></g></g><g fill="#000000" fill-opacity="1"><g transform="translate(279.220043, 196.769512)"><g><path d="M 0.140625 0 L 6.152344 0 L 7.21875 -2.78125 L 13.929688 -2.78125 L 15 0 L 21.035156 0 L 13.398438 -19.660156 L 7.78125 -19.660156 Z M 8.398438 -6.9375 L 10.589844 -13.03125 L 12.78125 -6.9375 Z M 8.398438 -6.9375 "/></g></g></g><g fill="#000000" fill-opacity="1"><g transform="translate(300.39614, 196.769512)"><g><path d="M 2.078125 0 L 10.421875 0 C 16.769531 0 20.980469 -3.902344 20.980469 -9.832031 C 20.980469 -15.730469 16.769531 -19.660156 10.421875 -19.660156 L 2.078125 -19.660156 Z M 7.75 -5.082031 L 7.75 -14.578125 L 10.25 -14.578125 C 13.257812 -14.578125 15.195312 -12.722656 15.195312 -9.832031 C 15.195312 -6.9375 13.257812 -5.082031 10.25 -5.082031 Z M 7.75 -5.082031 "/></g></g></g><g fill="#000000" fill-opacity="1"><g transform="translate(322.330531, 196.769512)"><g><path d="M 11.65625 0.421875 C 17.917969 0.421875 22.355469 -3.820312 22.355469 -9.832031 C 22.355469 -15.839844 17.917969 -20.082031 11.65625 -20.082031 C 5.394531 -20.082031 0.953125 -15.839844 0.953125 -9.832031 C 0.953125 -3.820312 5.394531 0.421875 11.65625 0.421875 Z M 6.710938 -9.832031 C 6.710938 -12.78125 8.761719 -14.828125 11.65625 -14.828125 C 14.578125 -14.828125 16.597656 -12.78125 16.597656 -9.832031 C 16.597656 -6.882812 14.578125 -4.832031 11.65625 -4.832031 C 8.761719 -4.832031 6.710938 -6.882812 6.710938 -9.832031 Z M 6.710938 -9.832031 "/></g></g></g></svg>